<?xml version="1.0" encoding="utf-8"?>
<!-- Generator: Adobe Illustrator 16.0.0, SVG Export Plug-In . SVG Version: 6.00 Build 0)  -->
<!DOCTYPE svg PUBLIC "-//W3C//DTD SVG 1.1//EN" "http://www.w3.org/Graphics/SVG/1.1/DTD/svg11.dtd">
<svg version="1.1" id="Слой_1" xmlns="http://www.w3.org/2000/svg" xmlns:xlink="http://www.w3.org/1999/xlink" x="0px" y="0px"
	 width="16px" height="16px" viewBox="0 0 16 16" enable-background="new 0 0 16 16" xml:space="preserve">
<path fill="#FFFFFF" d="M8,16c-4.418,0-8-3.582-8-8s3.582-8,8-8s8,3.582,8,8S12.418,16,8,16L8,16z M8,1C4.134,1,1,4.134,1,8
	s3.134,7,7,7s7-3.134,7-7S11.866,1,8,1L8,1z M9.552,7.697c-0.885,0.5-1.138,0.872-1.138,1.571v0.434H7.193V9.089
	c-0.006-0.88,0.44-1.479,1.396-2.024c0.81-0.473,1.123-0.893,1.123-1.604c0-0.825-0.669-1.431-1.709-1.431
	c-1.053,0-1.725,0.593-1.801,1.544H5.008C5.086,4.135,6.09,2.989,8.052,2.989c1.759,0,2.958,1.04,2.958,2.411
	C11.01,6.445,10.445,7.186,9.552,7.697L9.552,7.697z M7.749,10.866c0.64,0,1.089,0.442,1.089,1.065c0,0.614-0.449,1.059-1.089,1.059
	c-0.639,0-1.096-0.442-1.096-1.059C6.653,11.309,7.11,10.866,7.749,10.866L7.749,10.866z"/>
</svg>
